<mxfile host="app.diagrams.net" modified="2022-10-20T08:42:00.702Z" agent="5.0 (Windows NT 10.0; Win64; x64) AppleWebKit/537.36 (KHTML, like Gecko) Chrome/106.0.0.0 Safari/537.36" etag="hVtv3qiAzq0Mq27N-kj_" version="20.4.0" type="github">
  <diagram id="XjY6N1T4f0wS-in8ysbR" name="Страница 1">
    <mxGraphModel dx="981" dy="577" grid="1" gridSize="10" guides="1" tooltips="1" connect="1" arrows="1" fold="1" page="1" pageScale="1" pageWidth="2339" pageHeight="3300" math="0" shadow="0">
      <root>
        <mxCell id="0" />
        <mxCell id="1" parent="0" />
        <mxCell id="__Wk3iUZt8YWgwVppyIx-20" value="" style="ellipse;html=1;shape=startState;fillColor=#000000;strokeColor=#ff0000;fontSize=6;" parent="1" vertex="1">
          <mxGeometry x="175" y="340" width="30" height="30" as="geometry" />
        </mxCell>
        <mxCell id="__Wk3iUZt8YWgwVppyIx-21" value="" style="edgeStyle=orthogonalEdgeStyle;html=1;verticalAlign=bottom;endArrow=open;endSize=8;strokeColor=#ff0000;rounded=0;fontSize=6;exitX=0.5;exitY=1;exitDx=0;exitDy=0;" parent="1" source="__Wk3iUZt8YWgwVppyIx-20" edge="1">
          <mxGeometry relative="1" as="geometry">
            <mxPoint x="190" y="450" as="targetPoint" />
            <mxPoint x="190" y="380" as="sourcePoint" />
          </mxGeometry>
        </mxCell>
        <mxCell id="__Wk3iUZt8YWgwVppyIx-22" value="&lt;font style=&quot;font-size: 12px;&quot;&gt;message written&lt;br&gt;(saved in cache)&lt;br&gt;&lt;/font&gt;" style="rounded=1;whiteSpace=wrap;html=1;arcSize=40;fontColor=#000000;fillColor=#ffffc0;strokeColor=#ff0000;fontSize=6;" parent="1" vertex="1">
          <mxGeometry x="130" y="450" width="120" height="40" as="geometry" />
        </mxCell>
        <mxCell id="__Wk3iUZt8YWgwVppyIx-23" value="" style="edgeStyle=orthogonalEdgeStyle;html=1;verticalAlign=bottom;endArrow=open;endSize=8;strokeColor=#ff0000;rounded=0;fontSize=6;entryX=0.5;entryY=0;entryDx=0;entryDy=0;exitX=0.5;exitY=1;exitDx=0;exitDy=0;" parent="1" source="__Wk3iUZt8YWgwVppyIx-22" target="__Wk3iUZt8YWgwVppyIx-24" edge="1">
          <mxGeometry relative="1" as="geometry">
            <mxPoint x="190" y="550" as="targetPoint" />
            <mxPoint x="190" y="500" as="sourcePoint" />
          </mxGeometry>
        </mxCell>
        <mxCell id="__Wk3iUZt8YWgwVppyIx-24" value="&lt;font style=&quot;font-size: 12px;&quot;&gt;message sent&lt;/font&gt;" style="rounded=1;whiteSpace=wrap;html=1;arcSize=40;fontColor=#000000;fillColor=#ffffc0;strokeColor=#ff0000;fontSize=6;" parent="1" vertex="1">
          <mxGeometry x="130" y="560" width="120" height="40" as="geometry" />
        </mxCell>
        <mxCell id="__Wk3iUZt8YWgwVppyIx-25" value="" style="edgeStyle=orthogonalEdgeStyle;html=1;verticalAlign=bottom;endArrow=open;endSize=8;strokeColor=#ff0000;rounded=0;fontSize=6;entryX=0.5;entryY=0;entryDx=0;entryDy=0;exitX=0.5;exitY=1;exitDx=0;exitDy=0;" parent="1" source="__Wk3iUZt8YWgwVppyIx-24" target="__Wk3iUZt8YWgwVppyIx-26" edge="1">
          <mxGeometry relative="1" as="geometry">
            <mxPoint x="190" y="660" as="targetPoint" />
            <mxPoint x="190" y="610" as="sourcePoint" />
          </mxGeometry>
        </mxCell>
        <mxCell id="__Wk3iUZt8YWgwVppyIx-26" value="&lt;font style=&quot;font-size: 12px;&quot;&gt;message read&lt;/font&gt;" style="rounded=1;whiteSpace=wrap;html=1;arcSize=40;fontColor=#000000;fillColor=#ffffc0;strokeColor=#ff0000;fontSize=6;" parent="1" vertex="1">
          <mxGeometry x="130" y="670" width="120" height="40" as="geometry" />
        </mxCell>
        <mxCell id="__Wk3iUZt8YWgwVppyIx-27" value="" style="edgeStyle=orthogonalEdgeStyle;html=1;verticalAlign=bottom;endArrow=open;endSize=8;strokeColor=#ff0000;rounded=0;fontSize=6;exitX=0.5;exitY=1;exitDx=0;exitDy=0;entryX=0.5;entryY=0;entryDx=0;entryDy=0;" parent="1" source="__Wk3iUZt8YWgwVppyIx-26" target="__Wk3iUZt8YWgwVppyIx-28" edge="1">
          <mxGeometry relative="1" as="geometry">
            <mxPoint x="190" y="770" as="targetPoint" />
            <mxPoint x="190" y="720" as="sourcePoint" />
          </mxGeometry>
        </mxCell>
        <mxCell id="__Wk3iUZt8YWgwVppyIx-28" value="" style="ellipse;html=1;shape=endState;fillColor=#000000;strokeColor=#ff0000;fontSize=6;" parent="1" vertex="1">
          <mxGeometry x="175" y="770" width="30" height="30" as="geometry" />
        </mxCell>
        <mxCell id="__Wk3iUZt8YWgwVppyIx-29" value="write message" style="text;html=1;strokeColor=none;fillColor=none;align=center;verticalAlign=middle;whiteSpace=wrap;rounded=0;" parent="1" vertex="1">
          <mxGeometry x="200" y="390" width="80" height="20" as="geometry" />
        </mxCell>
        <mxCell id="__Wk3iUZt8YWgwVppyIx-30" value="send message" style="text;html=1;strokeColor=none;fillColor=none;align=center;verticalAlign=middle;whiteSpace=wrap;rounded=0;" parent="1" vertex="1">
          <mxGeometry x="205" y="510" width="85" height="20" as="geometry" />
        </mxCell>
        <mxCell id="__Wk3iUZt8YWgwVppyIx-31" value="recipient read message" style="text;html=1;strokeColor=none;fillColor=none;align=center;verticalAlign=middle;whiteSpace=wrap;rounded=0;" parent="1" vertex="1">
          <mxGeometry x="205" y="620" width="95" height="20" as="geometry" />
        </mxCell>
        <mxCell id="__Wk3iUZt8YWgwVppyIx-32" value="messeges" style="shape=umlFrame;whiteSpace=wrap;html=1;fontSize=12;" parent="1" vertex="1">
          <mxGeometry x="50" y="340" width="320" height="470" as="geometry" />
        </mxCell>
      </root>
    </mxGraphModel>
  </diagram>
</mxfile>
